<?xml version="1.0" encoding="UTF-8" standalone="no"?>
<!DOCTYPE svg PUBLIC "-//W3C//DTD SVG 1.1//EN" "http://www.w3.org/Graphics/SVG/1.1/DTD/svg11.dtd">
<svg width="100%" height="100%" viewBox="0 0 16196 6441" version="1.1" xmlns="http://www.w3.org/2000/svg" xmlns:xlink="http://www.w3.org/1999/xlink" xml:space="preserve" xmlns:serif="http://www.serif.com/" style="fill-rule:evenodd;clip-rule:evenodd;stroke-linejoin:round;stroke-miterlimit:2;">
    <g transform="matrix(1,0,0,1,-3479.2,-1244.61)">
        <g id="Icon" transform="matrix(1,0,0,1,1593.78,493.312)">
            <g transform="matrix(1,0,0,1,255.998,-1492.68)">
                <path d="M7534.93,3547.12C7534.93,3123.41 7190.93,2779.41 6767.22,2779.41L2397.14,2779.41C1973.42,2779.41 1629.42,3123.41 1629.42,3547.12L1629.42,7917.2C1629.42,8340.91 1973.42,8684.92 2397.14,8684.92L6767.22,8684.92C7190.93,8684.92 7534.93,8340.91 7534.93,7917.2L7534.93,3547.12ZM7239.66,3606.18C7239.66,3312.84 7001.5,3074.68 6708.16,3074.68L2456.19,3074.68C2162.85,3074.68 1924.7,3312.84 1924.7,3606.18L1924.7,7858.15C1924.7,8151.49 2162.85,8389.64 2456.19,8389.64L6708.16,8389.64C7001.5,8389.64 7239.66,8151.49 7239.66,7858.15L7239.66,3606.18Z"/>
            </g>
            <g transform="matrix(1,0,0,1,-338.644,-971.903)">
                <path d="M7133.37,4233.11C7133.37,3693.18 6695.02,3254.83 6155.1,3254.83L4198.54,3254.83C3658.62,3254.83 3220.26,3693.18 3220.26,4233.11L3220.26,6189.66C3220.26,6729.59 3658.62,7167.94 4198.54,7167.94L6155.1,7167.94C6695.02,7167.94 7133.37,6729.59 7133.37,6189.66L7133.37,4233.11Z"/>
            </g>
            <g transform="matrix(0.899921,0,0,0.899921,1639.18,-5023.56)">
                <g transform="matrix(4288.62,0,0,4288.62,2214.56,11794.2)">
                    <path d="M0.249,-0L0.249,-0.249L0.014,-0.7L0.159,-0.7L0.314,-0.377L0.468,-0.7L0.611,-0.7L0.377,-0.249L0.377,-0L0.249,-0Z" style="fill:white;fill-rule:nonzero;"/>
                </g>
            </g>
            <g id="top" transform="matrix(1,0,0,1,209.922,-596.687)">
                <g transform="matrix(1,0,0,1,91.4278,-7703.36)">
                    <path d="M4043.12,9197.64C4043.12,9116.9 3977.57,9051.35 3896.83,9051.35L3823.69,9051.35C3742.95,9051.35 3677.4,9116.9 3677.4,9197.64L3677.4,10075.3C3677.4,10156.1 3742.95,10221.6 3823.69,10221.6L3896.83,10221.6C3977.57,10221.6 4043.12,10156.1 4043.12,10075.3L4043.12,9197.64Z"/>
                </g>
                <g transform="matrix(1,0,0,1,1444.56,-7703.36)">
                    <path d="M4043.12,9197.64C4043.12,9116.9 3977.57,9051.35 3896.83,9051.35L3823.69,9051.35C3742.95,9051.35 3677.4,9116.9 3677.4,9197.64L3677.4,10075.3C3677.4,10156.1 3742.95,10221.6 3823.69,10221.6L3896.83,10221.6C3977.57,10221.6 4043.12,10156.1 4043.12,10075.3L4043.12,9197.64Z"/>
                </g>
            </g>
        </g>
        <g transform="matrix(1,0,0,1,628.246,1803.49)">
            <g transform="matrix(3859.42,0,0,3859.42,9714.45,4288.02)">
                <path d="M0.359,0.012C0.322,0.012 0.289,0.005 0.261,-0.009C0.233,-0.023 0.21,-0.043 0.193,-0.068L0.179,-0L0.065,-0L0.065,-0.72L0.193,-0.72L0.193,-0.425C0.209,-0.447 0.23,-0.466 0.257,-0.483C0.283,-0.5 0.317,-0.508 0.359,-0.508C0.406,-0.508 0.447,-0.497 0.484,-0.474C0.521,-0.451 0.55,-0.42 0.571,-0.381C0.592,-0.342 0.603,-0.297 0.603,-0.247C0.603,-0.197 0.592,-0.153 0.571,-0.114C0.55,-0.075 0.521,-0.044 0.484,-0.021C0.447,0.001 0.406,0.012 0.359,0.012ZM0.332,-0.1C0.373,-0.1 0.406,-0.114 0.433,-0.141C0.46,-0.168 0.473,-0.204 0.473,-0.247C0.473,-0.29 0.46,-0.326 0.433,-0.354C0.406,-0.382 0.373,-0.396 0.332,-0.396C0.291,-0.396 0.257,-0.382 0.231,-0.355C0.204,-0.327 0.191,-0.291 0.191,-0.248C0.191,-0.205 0.204,-0.169 0.231,-0.141C0.257,-0.114 0.291,-0.1 0.332,-0.1Z" style="fill-rule:nonzero;"/>
            </g>
            <g transform="matrix(3859.42,0,0,3859.42,12230.8,4288.02)">
                <path d="M0.303,0.012C0.255,0.012 0.212,0.001 0.173,-0.021C0.135,-0.043 0.105,-0.074 0.083,-0.113C0.06,-0.152 0.049,-0.197 0.049,-0.248C0.049,-0.299 0.06,-0.344 0.083,-0.384C0.106,-0.423 0.136,-0.453 0.174,-0.475C0.213,-0.497 0.256,-0.508 0.304,-0.508C0.351,-0.508 0.394,-0.497 0.433,-0.475C0.471,-0.453 0.501,-0.423 0.524,-0.384C0.546,-0.344 0.557,-0.299 0.557,-0.248C0.557,-0.197 0.546,-0.152 0.524,-0.113C0.501,-0.074 0.471,-0.043 0.432,-0.021C0.393,0.001 0.35,0.012 0.303,0.012ZM0.303,-0.099C0.336,-0.099 0.365,-0.112 0.39,-0.137C0.415,-0.162 0.427,-0.199 0.427,-0.248C0.427,-0.297 0.415,-0.335 0.39,-0.36C0.365,-0.385 0.337,-0.397 0.304,-0.397C0.27,-0.397 0.241,-0.385 0.217,-0.36C0.192,-0.335 0.18,-0.297 0.18,-0.248C0.18,-0.199 0.192,-0.162 0.217,-0.137C0.241,-0.112 0.27,-0.099 0.303,-0.099Z" style="fill-rule:nonzero;"/>
            </g>
            <g transform="matrix(3859.42,0,0,3859.42,14569.6,4288.02)">
                <path d="M0.303,0.012C0.255,0.012 0.212,0.001 0.173,-0.021C0.135,-0.043 0.105,-0.074 0.083,-0.113C0.06,-0.152 0.049,-0.197 0.049,-0.248C0.049,-0.299 0.06,-0.344 0.083,-0.384C0.106,-0.423 0.136,-0.453 0.174,-0.475C0.213,-0.497 0.256,-0.508 0.304,-0.508C0.351,-0.508 0.394,-0.497 0.433,-0.475C0.471,-0.453 0.501,-0.423 0.524,-0.384C0.546,-0.344 0.557,-0.299 0.557,-0.248C0.557,-0.197 0.546,-0.152 0.524,-0.113C0.501,-0.074 0.471,-0.043 0.432,-0.021C0.393,0.001 0.35,0.012 0.303,0.012ZM0.303,-0.099C0.336,-0.099 0.365,-0.112 0.39,-0.137C0.415,-0.162 0.427,-0.199 0.427,-0.248C0.427,-0.297 0.415,-0.335 0.39,-0.36C0.365,-0.385 0.337,-0.397 0.304,-0.397C0.27,-0.397 0.241,-0.385 0.217,-0.36C0.192,-0.335 0.18,-0.297 0.18,-0.248C0.18,-0.199 0.192,-0.162 0.217,-0.137C0.241,-0.112 0.27,-0.099 0.303,-0.099Z" style="fill-rule:nonzero;"/>
            </g>
            <g transform="matrix(3859.42,0,0,3859.42,16908.4,4288.02)">
                <path d="M0.065,-0L0.065,-0.72L0.193,-0.72L0.193,-0.295L0.369,-0.496L0.521,-0.496L0.318,-0.27L0.554,-0L0.394,-0L0.193,-0.249L0.193,-0L0.065,-0Z" style="fill-rule:nonzero;"/>
            </g>
        </g>
    </g>
</svg>
